<svg xmlns="http://www.w3.org/2000/svg" viewBox="0 0 32 32" fill="none">
  <g transform="rotate(-18, 16, 16)">
    <!-- Contour de la feuille -->
    <path
      d="M16 3
         C16 3 26 7 27 16
         C28 22 24 27 16 29
         C8 27 4 22 5 16
         C6 7 16 3 16 3Z"
      fill="#8B4513"
      opacity="0.15"
      stroke="#8B4513"
      stroke-width="1.2"
      stroke-linejoin="round"
    />
    <!-- Nervure centrale (midrib) -->
    <path
      d="M16 4 C16 4 16 28 16 29"
      stroke="#8B4513"
      stroke-width="1.3"
      stroke-linecap="round"
    />
    <!-- Nervures secondaires gauches -->
    <path d="M16 9  C13.5 9.8  11 10.5 8.5 11.5"  stroke="#8B4513" stroke-width="0.85" stroke-linecap="round" opacity="0.9"/>
    <path d="M16 13 C13   13.5 10 13.8 7.5 14.5"  stroke="#8B4513" stroke-width="0.85" stroke-linecap="round" opacity="0.9"/>
    <path d="M16 17 C13.5 17.2 11 17.2 8.5 17.8"  stroke="#8B4513" stroke-width="0.85" stroke-linecap="round" opacity="0.9"/>
    <path d="M16 21 C14   21.5 12 22   9.5 23"    stroke="#8B4513" stroke-width="0.75" stroke-linecap="round" opacity="0.8"/>
    <!-- Nervures secondaires droites -->
    <path d="M16 9  C18.5 9.8  21 10.5 23.5 11.5" stroke="#8B4513" stroke-width="0.85" stroke-linecap="round" opacity="0.9"/>
    <path d="M16 13 C19   13.5 22 13.8 24.5 14.5" stroke="#8B4513" stroke-width="0.85" stroke-linecap="round" opacity="0.9"/>
    <path d="M16 17 C18.5 17.2 21 17.2 23.5 17.8" stroke="#8B4513" stroke-width="0.85" stroke-linecap="round" opacity="0.9"/>
    <path d="M16 21 C18   21.5 20 22   22.5 23"   stroke="#8B4513" stroke-width="0.75" stroke-linecap="round" opacity="0.8"/>
    <!-- Nervures tertiaires gauches (fines) -->
    <path d="M12.5 10.2 C11.5 11.5 10.5 12.5 9.5 13" stroke="#8B4513" stroke-width="0.5" stroke-linecap="round" opacity="0.55"/>
    <path d="M11   14.2 C10   15.2  9   16   8   16.5" stroke="#8B4513" stroke-width="0.5" stroke-linecap="round" opacity="0.55"/>
    <path d="M11.5 17.5 C10.5 18.5  9.5 19.5 8.5 20" stroke="#8B4513" stroke-width="0.5" stroke-linecap="round" opacity="0.5"/>
    <!-- Nervures tertiaires droites (fines) -->
    <path d="M19.5 10.2 C20.5 11.5 21.5 12.5 22.5 13" stroke="#8B4513" stroke-width="0.5" stroke-linecap="round" opacity="0.55"/>
    <path d="M21   14.2 C22   15.2 23   16  24   16.5" stroke="#8B4513" stroke-width="0.5" stroke-linecap="round" opacity="0.55"/>
    <path d="M20.5 17.5 C21.5 18.5 22.5 19.5 23.5 20" stroke="#8B4513" stroke-width="0.5" stroke-linecap="round" opacity="0.5"/>
    <!-- Pétiole -->
    <path d="M16 29 C16 29 16 31 16 31" stroke="#8B4513" stroke-width="1.2" stroke-linecap="round"/>
  </g>
</svg>
